# xmcd
#
# Track frame offsets: 
#        150
#        13914
#        35077
#        55442
#        66861
#        87651
#        99327
#        109401
#        127548
#        139152
#        155453
#        173211
#
# Disc length: 2529 seconds
#
# Revision: 0
# Processed by: cddbd v1.5.2PL0 Copyright (c) Steve Scherf et al.
# Submitted via: ExactAudioCopy v0.99pb5
#
DISCID=a609df0c
DTITLE=A.J. Croce -  Cantos
DYEAR=2006
DGENRE=Blues
TTITLE0=Time Will Tell
TTITLE1=Play
TTITLE2=Maybe I'm Amazed
TTITLE3=I Know It's Right
TTITLE4=Once Again
TTITLE5=When I'm Gone
TTITLE6=I'm With You
TTITLE7=All About You
TTITLE8=I Should Have Known
TTITLE9=All I Have
TTITLE10=One and Only
TTITLE11=Until We Meet Again
EXTD=
EXTT0=
EXTT1=
EXTT2=
EXTT3=
EXTT4=
EXTT5=
EXTT6=
EXTT7=
EXTT8=
EXTT9=
EXTT10=
EXTT11=
PLAYORDER=
